<svg width="32" height="32" viewBox="0 0 40 40" fill="none" xmlns="http://www.w3.org/2000/svg">
  <mask id="mask0_384_1596" maskUnits="userSpaceOnUse" x="0" y="0" width="40" height="40">
  <rect width="40" height="40" fill="#FFF"/>
  </mask>
  <g mask="url(#mask0_384_1596)">
  <path d="M8.33333 13.3333H22.4167H21.6667H22.25H8.33333ZM9 10H31L29.5833 8.33333H10.4167L9 10ZM16.6667 21.25L20 19.5833L23.3333 21.25V13.3333H16.6667V21.25ZM24.25 35H8.33333C7.41667 35 6.63194 34.6736 5.97917 34.0208C5.32639 33.3681 5 32.5833 5 31.6667V10.875C5 10.4861 5.0625 10.1111 5.1875 9.75C5.3125 9.38889 5.5 9.05556 5.75 8.75L7.83333 6.20833C8.13889 5.81944 8.52083 5.52083 8.97917 5.3125C9.4375 5.10417 9.91667 5 10.4167 5H29.5833C30.0833 5 30.5625 5.10417 31.0208 5.3125C31.4792 5.52083 31.8611 5.81944 32.1667 6.20833L34.25 8.75C34.5 9.05556 34.6875 9.38889 34.8125 9.75C34.9375 10.1111 35 10.4861 35 10.875V19.0417C34.4722 18.8472 33.9306 18.6944 33.375 18.5833C32.8194 18.4722 32.25 18.4167 31.6667 18.4167V13.3333H26.6667V19.7083C25.6944 20.2639 24.8472 20.9514 24.125 21.7708C23.4028 22.5903 22.8333 23.5139 22.4167 24.5417L20 23.3333L13.3333 26.6667V13.3333H8.33333V31.6667H22.25C22.4722 32.3056 22.75 32.9028 23.0833 33.4583C23.4167 34.0139 23.8056 34.5278 24.25 35ZM30 35V30H25V26.6667H30V21.6667H33.3333V26.6667H38.3333V30H33.3333V35H30Z" fill="white"/>
  </g>
</svg>
