<svg width="32" height="32" viewBox="0 0 40 40" fill="none" xmlns="http://www.w3.org/2000/svg">
  <mask id="mask0_4_96" maskUnits="userSpaceOnUse" x="0" y="0" width="40" height="40">
    <rect width="40" height="40" fill="#FFF" />
  </mask>
  <g mask="url(#mask0_4_96)">
    <path d="M6.66669 31.6667V28.3334H10V16.6667C10 14.3612 10.6945 12.3125 12.0834 10.5209C13.4722 8.72921 15.2778 7.5556 17.5 7.00004V5.83337C17.5 5.13893 17.7431 4.54865 18.2292 4.06254C18.7153 3.57643 19.3056 3.33337 20 3.33337C20.6945 3.33337 21.2847 3.57643 21.7709 4.06254C22.257 4.54865 22.5 5.13893 22.5 5.83337V7.00004C24.7222 7.5556 26.5278 8.72921 27.9167 10.5209C29.3056 12.3125 30 14.3612 30 16.6667V28.3334H33.3334V31.6667H6.66669ZM20 36.6667C19.0834 36.6667 18.2986 36.3403 17.6459 35.6875C16.9931 35.0348 16.6667 34.25 16.6667 33.3334H23.3334C23.3334 34.25 23.007 35.0348 22.3542 35.6875C21.7014 36.3403 20.9167 36.6667 20 36.6667Z" fill="white" />
  </g>
</svg>