<svg width="49" height="49" viewBox="0 0 49 49" fill="none" xmlns="http://www.w3.org/2000/svg">
  <mask id="mask0_544_3228" style="mask-type:alpha" maskUnits="userSpaceOnUse" x="0" y="0" width="49" height="49">
  <rect x="0.63092" y="0.917969" width="48" height="48" fill="#D9D9D9"/>
  </mask>
  <g mask="url(#mask0_544_3228)">
  <path d="M17.1309 34.518L24.6309 27.018L32.1309 34.518L34.2309 32.418L26.7309 24.918L34.2309 17.418L32.1309 15.318L24.6309 22.818L17.1309 15.318L15.0309 17.418L22.5309 24.918L15.0309 32.418L17.1309 34.518ZM24.6309 44.918C21.8976 44.918 19.3143 44.393 16.8809 43.343C14.4476 42.293 12.3226 40.8596 10.5059 39.043C8.68925 37.2263 7.25592 35.1013 6.20592 32.668C5.15592 30.2346 4.63092 27.6513 4.63092 24.918C4.63092 22.1513 5.15592 19.5513 6.20592 17.118C7.25592 14.6846 8.68925 12.568 10.5059 10.768C12.3226 8.96797 14.4476 7.54297 16.8809 6.49297C19.3143 5.44297 21.8976 4.91797 24.6309 4.91797C27.3976 4.91797 29.9976 5.44297 32.4309 6.49297C34.8643 7.54297 36.9809 8.96797 38.7809 10.768C40.5809 12.568 42.0059 14.6846 43.0559 17.118C44.1059 19.5513 44.6309 22.1513 44.6309 24.918C44.6309 27.6513 44.1059 30.2346 43.0559 32.668C42.0059 35.1013 40.5809 37.2263 38.7809 39.043C36.9809 40.8596 34.8643 42.293 32.4309 43.343C29.9976 44.393 27.3976 44.918 24.6309 44.918ZM24.6309 41.918C29.3643 41.918 33.3809 40.2596 36.6809 36.943C39.9809 33.6263 41.6309 29.618 41.6309 24.918C41.6309 20.1846 39.9809 16.168 36.6809 12.868C33.3809 9.56797 29.3643 7.91797 24.6309 7.91797C19.9309 7.91797 15.9226 9.56797 12.6059 12.868C9.28925 16.168 7.63092 20.1846 7.63092 24.918C7.63092 29.618 9.28925 33.6263 12.6059 36.943C15.9226 40.2596 19.9309 41.918 24.6309 41.918Z" 
  fill="current"/>
  </g>
</svg>
