<svg width="48" height="48" viewBox="0 0 41 41" fill="none" xmlns="http://www.w3.org/2000/svg">
  <mask id="mask0_530_3228" maskUnits="userSpaceOnUse" x="0" y="0" width="41" height="41">
  <rect x="0.0427246" y="0.487305" width="40" height="40" fill="#FFF"/>
  </mask>
  <g mask="url(#mask0_530_3228)">
  <path d="M26.0426 18.4592C26.6908 18.4592 27.2417 18.2323 27.6954 17.7786C28.1491 17.325 28.376 16.774 28.376 16.1259C28.376 15.4777 28.1491 14.9268 27.6954 14.4731C27.2417 14.0194 26.6908 13.7925 26.0426 13.7925C25.3945 13.7925 24.8436 14.0194 24.3899 14.4731C23.9362 14.9268 23.7093 15.4777 23.7093 16.1259C23.7093 16.774 23.9362 17.325 24.3899 17.7786C24.8436 18.2323 25.3945 18.4592 26.0426 18.4592ZM14.0426 18.4592C14.6908 18.4592 15.2417 18.2323 15.6954 17.7786C16.1491 17.325 16.376 16.774 16.376 16.1259C16.376 15.4777 16.1491 14.9268 15.6954 14.4731C15.2417 14.0194 14.6908 13.7925 14.0426 13.7925C13.3945 13.7925 12.8436 14.0194 12.3899 14.4731C11.9362 14.9268 11.7093 15.4777 11.7093 16.1259C11.7093 16.774 11.9362 17.325 12.3899 17.7786C12.8436 18.2323 13.3945 18.4592 14.0426 18.4592ZM20.0475 23.0703C18.1739 23.0703 16.4755 23.5958 14.9524 24.6467C13.4292 25.6976 12.3112 27.0888 11.5982 28.8203H13.9871C14.5982 27.7 15.4447 26.8273 16.5266 26.2023C17.6085 25.5773 18.7868 25.2648 20.0614 25.2648C21.3359 25.2648 22.5079 25.5819 23.5774 26.2161C24.6468 26.8504 25.4964 27.7185 26.126 28.8203H28.4871C27.7927 27.0703 26.6808 25.6745 25.1516 24.6328C23.6225 23.5911 21.9211 23.0703 20.0475 23.0703ZM20.0426 37.1536C17.7371 37.1536 15.5704 36.7161 13.5426 35.8411C11.5149 34.9661 9.75098 33.7786 8.25098 32.2786C6.75098 30.7786 5.56348 29.0148 4.68848 26.987C3.81348 24.9592 3.37598 22.7925 3.37598 20.487C3.37598 18.1814 3.81348 16.0148 4.68848 13.987C5.56348 11.9592 6.75098 10.1953 8.25098 8.69531C9.75098 7.19531 11.5149 6.00781 13.5426 5.13281C15.5704 4.25781 17.7371 3.82031 20.0426 3.82031C22.3482 3.82031 24.5149 4.25781 26.5426 5.13281C28.5704 6.00781 30.3343 7.19531 31.8343 8.69531C33.3343 10.1953 34.5218 11.9592 35.3968 13.987C36.2718 16.0148 36.7093 18.1814 36.7093 20.487C36.7093 22.7925 36.2718 24.9592 35.3968 26.987C34.5218 29.0148 33.3343 30.7786 31.8343 32.2786C30.3343 33.7786 28.5704 34.9661 26.5426 35.8411C24.5149 36.7161 22.3482 37.1536 20.0426 37.1536ZM20.0426 34.3759C23.92 34.3759 27.2041 33.0304 29.8951 30.3394C32.5861 27.6484 33.9316 24.3643 33.9316 20.487C33.9316 16.6097 32.5861 13.3255 29.8951 10.6345C27.2041 7.94355 23.92 6.59806 20.0426 6.59806C16.1653 6.59806 12.8812 7.94355 10.1902 10.6345C7.49921 13.3255 6.15373 16.6097 6.15373 20.487C6.15373 24.3643 7.49921 27.6484 10.1902 30.3394C12.8812 33.0304 16.1653 34.3759 20.0426 34.3759Z" fill="#6F6F6F"/>
  </g>
</svg>
