
<svg width="28" height="28" viewBox="0 0 24 24" fill="none" xmlns="http://www.w3.org/2000/svg">
  <g clipPath="url(#clip0_100_864)">
    <path d="M13.8599 -9.57632e-06C13.8506 0.00374042 13.8393 0.00936545 13.8299 0.0149904L0.389941 2.56499C0.161191 2.60812 -0.00380943 2.81062 -5.94256e-05 3.04499V20.955C-0.00380943 21.1894 0.161191 21.3919 0.389941 21.435L13.8299 23.985C13.9687 24.0112 14.1131 23.9756 14.2237 23.8856C14.3324 23.7956 14.3981 23.6625 14.3999 23.52V21.12H22.5599C23.0849 21.12 23.5199 20.685 23.5199 20.16V3.83999C23.5199 3.31499 23.0849 2.87999 22.5599 2.87999H14.3999V0.47999C14.4018 0.341241 14.3418 0.20999 14.2387 0.118116C14.1356 0.0262404 13.9968 -0.0168846 13.8599 -9.57632e-06ZM13.4399 1.04999V3.13499C13.3762 3.26812 13.3762 3.42187 13.4399 3.55499V20.55C13.4268 20.6137 13.4268 20.6812 13.4399 20.745V22.95L0.95994 20.565V3.43499L13.4399 1.04999ZM14.3999 3.83999H22.5599V20.16H14.3999V17.76H16.3199V16.8H14.3999V13.92H16.3199V12.96H14.3999V10.56H16.3199V9.59999H14.3999V7.19999H16.3199V6.23999H14.3999V3.83999ZM17.2799 6.23999V7.19999H21.1199V6.23999H17.2799ZM3.20994 7.52999L5.83494 12.015L2.96994 16.5H5.36994L6.92994 13.605C7.03869 13.3256 7.10994 13.1119 7.13994 12.975H7.15494C7.21682 13.2675 7.27682 13.4662 7.33494 13.575L8.89494 16.5H11.2799L8.51994 11.97L11.2049 7.52999H8.95494L7.52994 10.185C7.39307 10.5319 7.29557 10.8056 7.24494 10.98H7.22994C7.15119 10.6875 7.06119 10.4269 6.95994 10.215L5.66994 7.52999H3.20994ZM17.2799 9.59999V10.56H21.1199V9.59999H17.2799ZM17.2799 12.96V13.92H21.1199V12.96H17.2799ZM17.2799 16.8V17.76H21.1199V16.8H17.2799Z" fill="white" />
  </g>
  <defs>
    <clipPath id="clip0_100_864">
      <rect width="24" height="24" fill="white" />
    </clipPath>
  </defs>
</svg>