<svg width="32" height="32" viewBox="0 0 40 40" fill="none" xmlns="http://www.w3.org/2000/svg">
  <mask id="mask0_4_47" maskUnits="userSpaceOnUse" x="0" y="0" width="40" height="40">
  <rect width="40" height="40" fill="#FFF" />
  </mask>
  <g mask="url(#mask0_4_47)">
  <path d="M25.8333 33.2084L18.75 26.1251L21.0833 23.7917L25.8333 28.5417L35.25 19.1251L37.5833 21.4584L25.8333 33.2084ZM35 16.6667H31.6667V8.33342H28.3333V13.3334H11.6667V8.33342H8.33333V31.6667H18.3333V35.0001H8.33333C7.41667 35.0001 6.63194 34.6737 5.97917 34.0209C5.32639 33.3681 5 32.5834 5 31.6667V8.33342C5 7.41675 5.32639 6.63203 5.97917 5.97925C6.63194 5.32647 7.41667 5.00008 8.33333 5.00008H15.2917C15.5972 4.02786 16.1944 3.22925 17.0833 2.60425C17.9722 1.97925 18.9444 1.66675 20 1.66675C21.1111 1.66675 22.1042 1.97925 22.9792 2.60425C23.8542 3.22925 24.4444 4.02786 24.75 5.00008H31.6667C32.5833 5.00008 33.3681 5.32647 34.0208 5.97925C34.6736 6.63203 35 7.41675 35 8.33342V16.6667ZM20 8.33342C20.4722 8.33342 20.8681 8.17369 21.1875 7.85425C21.5069 7.5348 21.6667 7.13897 21.6667 6.66675C21.6667 6.19453 21.5069 5.79869 21.1875 5.47925C20.8681 5.1598 20.4722 5.00008 20 5.00008C19.5278 5.00008 19.1319 5.1598 18.8125 5.47925C18.4931 5.79869 18.3333 6.19453 18.3333 6.66675C18.3333 7.13897 18.4931 7.5348 18.8125 7.85425C19.1319 8.17369 19.5278 8.33342 20 8.33342Z" fill="white" />
  </g>
</svg>