<svg width="32" height="32" viewBox="0 0 40 40" fill="none" xmlns="http://www.w3.org/2000/svg">
  <mask id="mask0_4_61" maskUnits="userSpaceOnUse" x="0" y="0" width="40" height="40">
    <rect width="40" height="40" fill="#FFF" />
  </mask>
  <g mask="url(#mask0_4_61)">
    <path d="M24.1667 38.3334C23.4722 38.3334 22.8819 38.0903 22.3958 37.6042C21.9097 37.1181 21.6667 36.5278 21.6667 35.8334V24.1667C21.6667 23.4723 21.9097 22.882 22.3958 22.3959C22.8819 21.9098 23.4722 21.6667 24.1667 21.6667H35.8333C36.5278 21.6667 37.1181 21.9098 37.6042 22.3959C38.0903 22.882 38.3333 23.4723 38.3333 24.1667V35.8334C38.3333 36.5278 38.0903 37.1181 37.6042 37.6042C37.1181 38.0903 36.5278 38.3334 35.8333 38.3334H24.1667ZM24.1667 35.8334H35.8333V34.5C35.1389 33.6389 34.2917 32.9514 33.2917 32.4375C32.2917 31.9237 31.1944 31.6667 30 31.6667C28.8056 31.6667 27.7083 31.9237 26.7083 32.4375C25.7083 32.9514 24.8611 33.6389 24.1667 34.5V35.8334ZM30 30C30.6944 30 31.2847 29.757 31.7708 29.2709C32.2569 28.7848 32.5 28.1945 32.5 27.5C32.5 26.8056 32.2569 26.2153 31.7708 25.7292C31.2847 25.2431 30.6944 25 30 25C29.3056 25 28.7153 25.2431 28.2292 25.7292C27.7431 26.2153 27.5 26.8056 27.5 27.5C27.5 28.1945 27.7431 28.7848 28.2292 29.2709C28.7153 29.757 29.3056 30 30 30ZM20.0833 14.1667C18.4722 14.1667 17.0972 14.7362 15.9583 15.875C14.8194 17.0139 14.25 18.3889 14.25 20C14.25 21.3334 14.625 22.5 15.375 23.5C16.125 24.5 17.1111 25.1945 18.3333 25.5834V21.8334C18.1111 21.6112 17.9306 21.3264 17.7917 20.9792C17.6528 20.632 17.5833 20.3056 17.5833 20C17.5833 19.3056 17.8264 18.7153 18.3125 18.2292C18.7986 17.7431 19.3889 17.5 20.0833 17.5C20.4722 17.5 20.8194 17.5764 21.125 17.7292C21.4306 17.882 21.6944 18.0834 21.9167 18.3334H25.6667C25.3056 17.1112 24.6181 16.1112 23.6042 15.3334C22.5903 14.5556 21.4167 14.1667 20.0833 14.1667ZM15.4167 36.6667L14.75 31.3334C14.3889 31.1945 14.0486 31.0278 13.7292 30.8334C13.4097 30.6389 13.0972 30.4306 12.7917 30.2084L7.83333 32.2917L3.25 24.375L7.54167 21.125C7.51389 20.9306 7.5 20.7431 7.5 20.5625V19.4375C7.5 19.257 7.51389 19.0695 7.54167 18.875L3.25 15.625L7.83333 7.70837L12.7917 9.79171C13.0972 9.56949 13.4167 9.36115 13.75 9.16671C14.0833 8.97226 14.4167 8.8056 14.75 8.66671L15.4167 3.33337H24.5833L25.25 8.66671C25.6111 8.8056 25.9514 8.97226 26.2708 9.16671C26.5903 9.36115 26.9028 9.56949 27.2083 9.79171L32.1667 7.70837L36.75 15.625L33.2083 18.3334H29C28.9722 18.1945 28.9444 18.0487 28.9167 17.8959C28.8889 17.7431 28.8472 17.5973 28.7917 17.4584L32.375 14.75L30.75 11.9167L26.625 13.6667C26.0139 13.0278 25.3403 12.4931 24.6042 12.0625C23.8681 11.632 23.0694 11.3056 22.2083 11.0834L21.6667 6.66671H18.375L17.7917 11.0834C16.9306 11.3056 16.1319 11.632 15.3958 12.0625C14.6597 12.4931 13.9861 13.0139 13.375 13.625L9.25 11.9167L7.625 14.75L11.2083 17.4167C11.0694 17.8334 10.9722 18.25 10.9167 18.6667C10.8611 19.0834 10.8333 19.5278 10.8333 20C10.8333 20.4445 10.8611 20.875 10.9167 21.2917C10.9722 21.7084 11.0694 22.125 11.2083 22.5417L7.625 25.25L9.25 28.0834L13.375 26.3334C14.0417 27.0278 14.7917 27.6112 15.625 28.0834C16.4583 28.5556 17.3611 28.8612 18.3333 29V36.6667H15.4167Z" fill="white" />
  </g>
</svg>