<svg width="48" height="48" viewBox="0 0 48 48" fill="none" xmlns="http://www.w3.org/2000/svg">
  <mask id="mask0_566_3228" style="mask-type:alpha" maskUnits="userSpaceOnUse" x="0" y="0" width="48" height="48">
  <rect width="48" height="48" fill="#D9D9D9"/>
  </mask>
  <g mask="url(#mask0_566_3228)">
  <path d="M9.8 31.4499C9.13333 30.2499 8.66667 29.0416 8.4 27.8249C8.13333 26.6082 8 25.3666 8 24.0999C8 19.7332 9.575 15.9749 12.725 12.8249C15.875 9.6749 19.6333 8.0999 24 8.0999H26.15L22.15 4.0999L24.1 2.1499L31.55 9.5999L24.1 17.0499L22.1 15.0499L26.05 11.0999H24C20.4333 11.0999 17.375 12.3749 14.825 14.9249C12.275 17.4749 11 20.5332 11 24.0999C11 25.0666 11.0917 25.9832 11.275 26.8499C11.4583 27.7166 11.6833 28.5332 11.95 29.2999L9.8 31.4499ZM23.8 45.9999L16.35 38.5499L23.8 31.0999L25.75 33.0499L21.75 37.0499H24C27.5667 37.0499 30.625 35.7749 33.175 33.2249C35.725 30.6749 37 27.6166 37 24.0499C37 23.0832 36.9167 22.1666 36.75 21.2999C36.5833 20.4332 36.3333 19.6166 36 18.8499L38.15 16.6999C38.8167 17.8999 39.2917 19.1082 39.575 20.3249C39.8583 21.5416 40 22.7832 40 24.0499C40 28.4166 38.425 32.1749 35.275 35.3249C32.125 38.4749 28.3667 40.0499 24 40.0499H21.75L25.75 44.0499L23.8 45.9999Z"/>
  </g>
</svg>
