<svg width="32" height="32" viewBox="0 0 40 40" fill="none" xmlns="http://www.w3.org/2000/svg">
  <mask id="mask0_81_292" maskUnits="userSpaceOnUse" x="0" y="0" width="40" height="40">
    <rect width="40" height="40" fill="#FFF" />
  </mask>
  <g mask="url(#mask0_81_292)">
    <path d="M27 34.1667L31.6667 29.5V33.3333H33.3333V26.6667H26.6667V28.3333H30.5L25.8333 33L27 34.1667ZM8.33333 35C7.41667 35 6.63194 34.6736 5.97917 34.0208C5.32639 33.3681 5 32.5833 5 31.6667V8.33333C5 7.41667 5.32639 6.63194 5.97917 5.97917C6.63194 5.32639 7.41667 5 8.33333 5H31.6667C32.5833 5 33.3681 5.32639 34.0208 5.97917C34.6736 6.63194 35 7.41667 35 8.33333V19.5C34.4722 19.25 33.9306 19.0347 33.375 18.8542C32.8194 18.6736 32.25 18.5417 31.6667 18.4583V8.33333H8.33333V31.6667H18.4167C18.5 32.2778 18.6319 32.8611 18.8125 33.4167C18.9931 33.9722 19.2083 34.5 19.4583 35H8.33333ZM8.33333 31.6667V8.33333V18.4583V18.3333V31.6667ZM11.6667 28.3333H18.4583C18.5417 27.75 18.6736 27.1806 18.8542 26.625C19.0347 26.0694 19.2361 25.5278 19.4583 25H11.6667V28.3333ZM11.6667 21.6667H21.8333C22.7222 20.8333 23.7153 20.1389 24.8125 19.5833C25.9097 19.0278 27.0833 18.6528 28.3333 18.4583V18.3333H11.6667V21.6667ZM11.6667 15H28.3333V11.6667H11.6667V15ZM30 38.3333C27.6944 38.3333 25.7292 37.5208 24.1042 35.8958C22.4792 34.2708 21.6667 32.3056 21.6667 30C21.6667 27.6944 22.4792 25.7292 24.1042 24.1042C25.7292 22.4792 27.6944 21.6667 30 21.6667C32.3056 21.6667 34.2708 22.4792 35.8958 24.1042C37.5208 25.7292 38.3333 27.6944 38.3333 30C38.3333 32.3056 37.5208 34.2708 35.8958 35.8958C34.2708 37.5208 32.3056 38.3333 30 38.3333Z" fill="white" />
  </g>
</svg>