<svg width="32" height="32" viewBox="0 0 40 40" fill="none" xmlns="http://www.w3.org/2000/svg">
  <mask id="mask0_384_1571" style="mask-type:alpha" maskUnits="userSpaceOnUse" x="0" y="0" width="40" height="40">
  <rect width="40" height="40" fill="#FFF"/>
  </mask>
  <g mask="url(#mask0_384_1571)">
  <path d="M10.0001 33.3332C8.61119 33.3332 7.43064 32.8471 6.45842 31.8748C5.48619 30.9026 5.00008 29.7221 5.00008 28.3332H1.66675V9.99984C1.66675 9.08317 1.99314 8.29845 2.64591 7.64567C3.29869 6.99289 4.08341 6.6665 5.00008 6.6665H28.3334V13.3332H33.3334L38.3334 19.9998V28.3332H35.0001C35.0001 29.7221 34.514 30.9026 33.5417 31.8748C32.5695 32.8471 31.389 33.3332 30.0001 33.3332C28.6112 33.3332 27.4306 32.8471 26.4584 31.8748C25.4862 30.9026 25.0001 29.7221 25.0001 28.3332H15.0001C15.0001 29.7221 14.514 30.9026 13.5417 31.8748C12.5695 32.8471 11.389 33.3332 10.0001 33.3332ZM10.0001 29.9998C10.4723 29.9998 10.8681 29.8401 11.1876 29.5207C11.507 29.2012 11.6667 28.8054 11.6667 28.3332C11.6667 27.8609 11.507 27.4651 11.1876 27.1457C10.8681 26.8262 10.4723 26.6665 10.0001 26.6665C9.52786 26.6665 9.13203 26.8262 8.81258 27.1457C8.49314 27.4651 8.33342 27.8609 8.33342 28.3332C8.33342 28.8054 8.49314 29.2012 8.81258 29.5207C9.13203 29.8401 9.52786 29.9998 10.0001 29.9998ZM5.00008 24.9998H6.33342C6.80564 24.4998 7.3473 24.0971 7.95842 23.7915C8.56953 23.4859 9.25008 23.3332 10.0001 23.3332C10.7501 23.3332 11.4306 23.4859 12.0417 23.7915C12.6529 24.0971 13.1945 24.4998 13.6667 24.9998H25.0001V9.99984H5.00008V24.9998ZM30.0001 29.9998C30.4723 29.9998 30.8681 29.8401 31.1876 29.5207C31.507 29.2012 31.6667 28.8054 31.6667 28.3332C31.6667 27.8609 31.507 27.4651 31.1876 27.1457C30.8681 26.8262 30.4723 26.6665 30.0001 26.6665C29.5279 26.6665 29.132 26.8262 28.8126 27.1457C28.4931 27.4651 28.3334 27.8609 28.3334 28.3332C28.3334 28.8054 28.4931 29.2012 28.8126 29.5207C29.132 29.8401 29.5279 29.9998 30.0001 29.9998ZM28.3334 21.6665H35.4167L31.6667 16.6665H28.3334V21.6665Z" fill="white"/>
  </g>
</svg>
