<svg width="100" height="100" viewBox="0 0 100 100" fill="none" xmlns="http://www.w3.org/2000/svg">
  <mask id="mask0_88_1503" maskUnits="userSpaceOnUse" x="0" y="0" width="100" height="100">
  <rect width="100" height="100" fill="#D9D9D9"/>
  </mask>
  <g mask="url(#mask0_88_1503)">
  <path d="M27.0834 83.3334C20.764 83.3334 15.3647 81.1459 10.8855 76.7709C6.40633 72.3959 4.16675 67.0487 4.16675 60.7292C4.16675 55.3126 5.79869 50.4862 9.06258 46.2501C12.3265 42.014 16.5973 39.3056 21.8751 38.1251C23.6112 31.7362 27.0834 26.5626 32.2917 22.6042C37.5001 18.6459 43.4029 16.6667 50.0001 16.6667C58.1251 16.6667 65.0174 19.4966 70.6772 25.1563C76.3369 30.8161 79.1668 37.7084 79.1668 45.8334C83.9584 46.389 87.9341 48.4549 91.0938 52.0313C94.2536 55.6077 95.8334 59.7917 95.8334 64.5834C95.8334 69.7917 94.0105 74.2188 90.3647 77.8647C86.7188 81.5105 82.2918 83.3334 77.0834 83.3334H54.1668C51.8751 83.3334 49.9133 82.5174 48.2813 80.8855C46.6494 79.2536 45.8334 77.2917 45.8334 75.0001V53.5417L39.1668 60.0001L33.3334 54.1667L50.0001 37.5001L66.6668 54.1667L60.8334 60.0001L54.1668 53.5417V75.0001H77.0834C80.0001 75.0001 82.4654 73.9931 84.4793 71.9792C86.4931 69.9654 87.5001 67.5001 87.5001 64.5834C87.5001 61.6667 86.4931 59.2015 84.4793 57.1876C82.4654 55.1737 80.0001 54.1667 77.0834 54.1667H70.8334V45.8334C70.8334 40.0695 68.8022 35.1563 64.7397 31.0938C60.6772 27.0313 55.764 25.0001 50.0001 25.0001C44.2362 25.0001 39.323 27.0313 35.2605 31.0938C31.198 35.1563 29.1667 40.0695 29.1667 45.8334H27.0834C23.0556 45.8334 19.6181 47.257 16.7709 50.1042C13.9237 52.9515 12.5001 56.389 12.5001 60.4167C12.5001 64.4445 13.9237 67.882 16.7709 70.7292C19.6181 73.5765 23.0556 75.0001 27.0834 75.0001H37.5001V83.3334H27.0834Z" fill="#0033A1"/>
  </g>
</svg>
