<svg width="32" height="32" viewBox="0 0 40 40" fill="none" xmlns="http://www.w3.org/2000/svg">
  <mask id="mask0_4_54" maskUnits="userSpaceOnUse" x="0" y="0" width="40" height="40">
    <rect width="40" height="40" fill="#FFF" />
  </mask>
  <g mask="url(#mask0_4_54)">
    <path d="M1.66675 33.3334V28.6667C1.66675 27.7223 1.9098 26.8542 2.39591 26.0626C2.88203 25.2709 3.52786 24.6667 4.33341 24.2501C6.05564 23.389 7.80564 22.7431 9.58341 22.3126C11.3612 21.882 13.1667 21.6667 15.0001 21.6667C16.8334 21.6667 18.639 21.882 20.4167 22.3126C22.1945 22.7431 23.9445 23.389 25.6667 24.2501C26.4723 24.6667 27.1181 25.2709 27.6042 26.0626C28.0904 26.8542 28.3334 27.7223 28.3334 28.6667V33.3334H1.66675ZM31.6667 33.3334V28.3334C31.6667 27.1112 31.3265 25.9376 30.6459 24.8126C29.9654 23.6876 29.0001 22.7223 27.7501 21.9167C29.1667 22.0834 30.5001 22.3681 31.7501 22.7709C33.0001 23.1737 34.1667 23.6667 35.2501 24.2501C36.2501 24.8056 37.014 25.4237 37.5417 26.1042C38.0695 26.7848 38.3334 27.5279 38.3334 28.3334V33.3334H31.6667ZM15.0001 20.0001C13.1667 20.0001 11.5973 19.3473 10.2917 18.0417C8.98619 16.7362 8.33341 15.1667 8.33341 13.3334C8.33341 11.5001 8.98619 9.93064 10.2917 8.62508C11.5973 7.31953 13.1667 6.66675 15.0001 6.66675C16.8334 6.66675 18.4029 7.31953 19.7084 8.62508C21.014 9.93064 21.6667 11.5001 21.6667 13.3334C21.6667 15.1667 21.014 16.7362 19.7084 18.0417C18.4029 19.3473 16.8334 20.0001 15.0001 20.0001ZM31.6667 13.3334C31.6667 15.1667 31.014 16.7362 29.7084 18.0417C28.4029 19.3473 26.8334 20.0001 25.0001 20.0001C24.6945 20.0001 24.3056 19.9654 23.8334 19.8959C23.3612 19.8265 22.9723 19.7501 22.6667 19.6667C23.4167 18.7779 23.9931 17.7917 24.3959 16.7084C24.7987 15.6251 25.0001 14.5001 25.0001 13.3334C25.0001 12.1667 24.7987 11.0417 24.3959 9.95841C23.9931 8.87508 23.4167 7.88897 22.6667 7.00008C23.0556 6.86119 23.4445 6.77091 23.8334 6.72925C24.2223 6.68758 24.6112 6.66675 25.0001 6.66675C26.8334 6.66675 28.4029 7.31953 29.7084 8.62508C31.014 9.93064 31.6667 11.5001 31.6667 13.3334ZM5.00008 30.0001H25.0001V28.6667C25.0001 28.3612 24.9237 28.0834 24.7709 27.8334C24.6181 27.5834 24.4167 27.389 24.1667 27.2501C22.6667 26.5001 21.1529 25.9376 19.6251 25.5626C18.0973 25.1876 16.5556 25.0001 15.0001 25.0001C13.4445 25.0001 11.9029 25.1876 10.3751 25.5626C8.8473 25.9376 7.33341 26.5001 5.83341 27.2501C5.58341 27.389 5.38203 27.5834 5.22925 27.8334C5.07647 28.0834 5.00008 28.3612 5.00008 28.6667V30.0001ZM15.0001 16.6667C15.9167 16.6667 16.7015 16.3404 17.3542 15.6876C18.007 15.0348 18.3334 14.2501 18.3334 13.3334C18.3334 12.4167 18.007 11.632 17.3542 10.9792C16.7015 10.3265 15.9167 10.0001 15.0001 10.0001C14.0834 10.0001 13.2987 10.3265 12.6459 10.9792C11.9931 11.632 11.6667 12.4167 11.6667 13.3334C11.6667 14.2501 11.9931 15.0348 12.6459 15.6876C13.2987 16.3404 14.0834 16.6667 15.0001 16.6667Z" fill="white" />
  </g>
</svg>